Coordinates
version=1
nRows=14
nColumns=24
inDegrees=yes

Units are S.I. units (second, meters, Newtons, ...)
Angles are in degrees.

endheader
time	pelvis_tilt	pelvis_list	pelvis_rotation	pelvis_tx	pelvis_ty	pelvis_tz	hip_flexion_r	hip_adduction_r	hip_rotation_r	knee_angle_r	ankle_angle_r	subtalar_angle_r	mtp_angle_r	hip_flexion_l	hip_adduction_l	hip_rotation_l	knee_angle_l	ankle_angle_l	subtalar_angle_l	mtp_angle_l	lumbar_extension	lumbar_bending	lumbar_rotation
      3.27500000	     -5.41602149	      1.39813068	    363.38041710	      0.13892670	      1.38986491	     -1.00872565	     14.29928966	      0.84124728	      0.75221312	    -13.83761858	     -1.18639407	     -8.57721390	      4.68164379	     18.23255923	      4.16832541	      5.63741301	    -53.88085229	     -1.28617924	     13.42455110	     41.90772159	     -6.57097213	      4.74381240	     11.72673556
      3.28000000	     -5.49613502	      1.55219121	    363.34100576	      0.14356345	      1.39037345	     -1.00836195	     14.00055346	      0.72483205	      0.87993394	    -13.67879498	     -1.01187170	     -8.59725504	      4.59343179	     18.86350735	      4.31108185	      5.50353661	    -53.58122314	     -0.82415376	     13.35785210	     41.38674293	     -6.54471109	      4.53148644	     11.77399220
      3.28500000	     -5.54522573	      1.70702843	    363.30594078	      0.14818925	      1.39089173	     -1.00800468	     13.66154041	      0.60669161	      0.99829720	    -13.50742591	     -0.82736018	     -8.61441907	      4.50149514	     19.43850222	      4.45103616	      5.37545546	    -53.20685979	     -0.38848086	     13.26312680	     40.89411153	     -6.55605296	      4.31517584	     11.82189918
      3.29000000	     -5.60427300	      1.86553876	    363.26443662	      0.15281991	      1.39140161	     -1.00765233	     13.33151503	      0.48150630	      1.10415708	    -13.32944220	     -0.68392189	     -8.61434087	      4.43574862	     20.00007989	      4.59166574	      5.24055392	    -52.75397262	     -0.00688095	     13.07861289	     40.49130708	     -6.55210285	      4.09747543	     11.86175136
      3.29500000	     -5.68065290	      2.00328243	    363.23950356	      0.15743035	      1.39184924	     -1.00734682	     13.02263053	      0.37022320	      1.18987734	    -13.15500106	     -0.52161070	     -8.60920518	      4.36310076	     20.57325869	      4.71971517	      5.13418353	    -52.26019391	      0.37387758	     12.89803169	     40.04420043	     -6.52871120	      3.90025245	     11.91092417
      3.30000000	     -5.76611387	      2.13427860	    363.22369507	      0.16202420	      1.39226606	     -1.00706361	     12.72451129	      0.26123214	      1.25843573	    -12.98142602	     -0.34944502	     -8.59847859	      4.28397955	     21.13996137	      4.84483165	      5.04293487	    -51.70823343	      0.73282028	     12.69794433	     39.58958374	     -6.49568941	      3.70911827	     11.95319252
      3.30500000	     -5.83014707	      2.26317362	    363.22556208	      0.16660185	      1.39267867	     -1.00680193	     12.39827836	      0.15041691	      1.31094061	    -12.79580727	     -0.22329387	     -8.63086763	      4.27603058	     21.66193847	      4.97213798	      4.98550133	    -51.07981467	      1.06643816	     12.51873152	     39.47057626	     -6.49887444	      3.53264913	     11.92912650
      3.31000000	     -5.91217556	      2.40028438	    363.19355475	      0.17119331	      1.39305316	     -1.00652492	     12.09781109	      0.03407134	      1.39128711	    -12.62173034	     -0.03529751	     -8.58527200	      4.23544101	     22.17913993	      5.09975474	      4.88387399	    -50.39630235	      1.27532417	     12.11698458	     38.98488865	     -6.46685170	      3.32999654	     11.99010345
      3.31500000	     -5.99488531	      2.50140354	    363.19224419	      0.17577250	      1.39339973	     -1.00632271	     11.80034660	     -0.05783898	      1.36943254	    -12.45024406	      0.13075085	     -8.48000805	      4.13479150	     22.68648501	      5.20110371	      4.82444177	    -49.68139383	      1.60672524	     11.86612877	     38.37714829	     -6.43578166	      3.16990665	     12.04537267
      3.32000000	     -6.08023275	      2.62824956	    363.19024127	      0.18033966	      1.39369636	     -1.00608051	     11.50899750	     -0.17087255	      1.39616495	    -12.28535130	      0.30526807	     -8.48536661	      4.11449258	     23.17127425	      5.32341309	      4.76534881	    -48.88367920	      1.81563511	     11.58284982	     38.10050491	     -6.41104431	      2.98688990	     12.02808525
      3.32500000	     -6.18187910	      2.71902795	    363.18860953	      0.18490377	      1.39396319	     -1.00593600	     11.23747797	     -0.25643074	      1.40635585	    -12.11893266	      0.46270513	     -8.39407597	      4.07843771	     23.65732534	      5.42563876	      4.74199668	    -48.04663267	      2.01634068	     11.20616250	     37.66089344	     -6.36278158	      2.84849986	     12.06865968
      3.33000000	     -6.26785780	      2.80725687	    363.18851020	      0.18945981	      1.39419128	     -1.00576789	     10.96052752	     -0.33853166	      1.36303591	    -11.97440660	      0.64432710	     -8.27769873	      4.02516896	     24.10565643	      5.51430413	      4.70635038	    -47.15999746	      2.24068617	     10.87399564	     37.16489257	     -6.33373144	      2.70339666	     12.09994514
      3.33500000	     -6.36054895	      2.91208470	    363.18140161	      0.19401572	      1.39438558	     -1.00556830	     10.69485827	     -0.43248242	      1.36725093	    -11.83614784	      0.82481191	     -8.25215268	      4.01277339	     24.53390088	      5.61150430	      4.66476375	    -46.19881098	      2.36821836	     10.54933939	     36.84792264	     -6.30328803	      2.54244849	     12.09128366
      3.34000000	     -6.44575232	      2.99331113	    363.17053333	      0.19855204	      1.39455816	     -1.00547355	     10.42705443	     -0.51174451	      1.34927815	    -11.70254422	      1.00340562	     -8.10086077	      3.98980927	     24.93282444	      5.70033601	      4.65692119	    -45.19396878	      2.50878980	     10.14051527	     36.36391143	     -6.28056634	      2.42479997	     12.14867793
